<svg width="16" height="16" viewBox="0 0 16 16" fill="none" xmlns="http://www.w3.org/2000/svg">
<path d="M8.00016 14.6666C4.31826 14.6666 1.3335 11.6818 1.3335 7.99992C1.3335 4.31802 4.31826 1.33325 8.00016 1.33325C11.6821 1.33325 14.6668 4.31802 14.6668 7.99992C14.6628 11.6801 11.6804 14.6625 8.00016 14.6666ZM8.00016 2.66659C5.05464 2.66659 2.66683 5.0544 2.66683 7.99992C2.66683 10.9454 5.05464 13.3333 8.00016 13.3333C10.9457 13.3333 13.3335 10.9454 13.3335 7.99992C13.3302 5.05577 10.9443 2.66989 8.00016 2.66659ZM11.3335 8.66659H7.3335V4.66659H8.66683V7.33325H11.3335V8.66659Z" fill="#FF7C00"/>
</svg>
