<svg width="40" height="40" viewBox="0 0 40 40" fill="none" xmlns="http://www.w3.org/2000/svg">
<path d="M39.8844 15.8526C39.6528 14.9883 39.0984 14.2658 38.3235 13.8183L29.0836 8.48377C28.7098 8.26799 28.2322 8.39612 28.0165 8.7697C27.8007 9.14336 27.9287 9.62109 28.3024 9.83686L37.5423 15.1715C37.9558 15.4103 38.2516 15.7958 38.3752 16.2571C38.4988 16.7184 38.4354 17.2001 38.1966 17.6137L37.3748 19.0372L11.124 3.88131L11.9459 2.45791C12.1847 2.04432 12.5702 1.74855 13.0315 1.62496C13.4926 1.50129 13.9746 1.56473 14.3881 1.80355L22.2141 6.32195C22.5879 6.53772 23.0656 6.4096 23.2813 6.03602C23.4971 5.66236 23.369 5.18463 22.9954 4.96886L15.1692 0.450301C14.3942 0.00281278 13.4914 -0.116012 12.627 0.115622C11.7627 0.347179 11.0402 0.901618 10.5927 1.67652L2.22447 16.1708C2.09323 16.3982 1.9905 16.6379 1.91605 16.8863C0.784355 17.4246 0 18.579 0 19.9134V36.6498C0 38.4971 1.50293 40 3.35023 40H30.0863C31.9336 40 33.4367 38.4971 33.4367 36.6498V28.983L39.5497 18.3948C39.9972 17.6199 40.116 16.7171 39.8844 15.8526ZM36.5732 20.4253L35.4998 22.2846L33.4367 21.0934V19.9133C33.4367 19.3451 33.294 18.8098 33.0434 18.3405L36.5935 20.3902L36.5732 20.4253ZM25.5898 16.5631L9.24914 7.12873L10.3429 5.23432L29.9648 16.5631H25.5898ZM22.465 16.5631H3.80217L8.46791 8.48182L22.465 16.5631ZM31.8742 36.6498C31.8742 37.6355 31.0722 38.4375 30.0863 38.4375H3.35023C2.36447 38.4375 1.56246 37.6355 1.56246 36.6498V19.9134C1.56246 18.9276 2.36447 18.1256 3.35023 18.1256H30.0863C31.0722 18.1256 31.8742 18.9276 31.8742 19.9134V36.6498ZM33.4367 22.8975L34.7186 23.6377L33.4367 25.8581V22.8975Z" fill="#FF7C00"/>
<path d="M18.1246 25.0004V21.563C18.1246 21.1316 17.7749 20.7817 17.3434 20.7817H4.84373C4.41226 20.7817 4.0625 21.1316 4.0625 21.563V25.0004C4.0625 25.4318 4.41226 25.7816 4.84373 25.7816H17.3434C17.7749 25.7816 18.1246 25.4318 18.1246 25.0004ZM16.5622 24.2191H5.62496V22.3442H16.5622V24.2191Z" fill="white"/>
<path d="M27.3245 20.7817H23.1749C22.0445 20.7817 21.125 21.7013 21.125 22.8315V25.8591C21.125 26.9894 22.0446 27.9089 23.1749 27.9089H27.3245C28.4548 27.9089 29.3743 26.9893 29.3743 25.8591V22.8315C29.3743 21.7013 28.4547 20.7817 27.3245 20.7817ZM27.8119 25.8591C27.8119 26.1278 27.5932 26.3464 27.3245 26.3464H23.1749C22.9061 26.3464 22.6875 26.1278 22.6875 25.8591V22.8315C22.6875 22.5629 22.9061 22.3442 23.1749 22.3442H27.3245C27.5932 22.3442 27.8119 22.5629 27.8119 22.8315V25.8591Z" fill="white"/>
<path d="M13.3212 34.2189H4.84373C4.41226 34.2189 4.0625 34.5687 4.0625 35.0001C4.0625 35.4315 4.41226 35.7813 4.84373 35.7813H13.3212C13.7526 35.7813 14.1024 35.4315 14.1024 35.0001C14.1024 34.5687 13.7526 34.2189 13.3212 34.2189Z" fill="white"/>
<path d="M4.84373 31.5627H8.20974C8.64121 31.5627 8.99097 31.2129 8.99097 30.7815C8.99097 30.3501 8.64121 30.0002 8.20974 30.0002H4.84373C4.41226 30.0002 4.0625 30.3501 4.0625 30.7815C4.0625 31.2129 4.41226 31.5627 4.84373 31.5627Z" fill="white"/>
<path d="M15.0047 30.0002H11.6387C11.2072 30.0002 10.8574 30.3501 10.8574 30.7815C10.8574 31.2129 11.2072 31.5627 11.6387 31.5627H15.0047C15.4361 31.5627 15.7859 31.2129 15.7859 30.7815C15.7859 30.3501 15.4361 30.0002 15.0047 30.0002Z" fill="white"/>
<path d="M21.7986 30.0002H18.4326C18.0011 30.0002 17.6514 30.3501 17.6514 30.7815C17.6514 31.2129 18.0011 31.5627 18.4326 31.5627H21.7986C22.23 31.5627 22.5798 31.2129 22.5798 30.7815C22.5798 30.3501 22.2301 30.0002 21.7986 30.0002Z" fill="white"/>
<path d="M28.5925 30.0002H25.2265C24.7951 30.0002 24.4453 30.3501 24.4453 30.7815C24.4453 31.2129 24.7951 31.5627 25.2265 31.5627H28.5925C29.0239 31.5627 29.3738 31.2129 29.3738 30.7815C29.3738 30.3501 29.0239 30.0002 28.5925 30.0002Z" fill="white"/>
<path d="M25.6494 8.18262C26.0809 8.18262 26.4307 7.83284 26.4307 7.40137C26.4307 6.96989 26.0809 6.62012 25.6494 6.62012C25.2179 6.62012 24.8682 6.96989 24.8682 7.40137C24.8682 7.83284 25.2179 8.18262 25.6494 8.18262Z" fill="#FF7C00"/>
</svg>
