<svg width="40" height="40" viewBox="0 0 40 40" fill="none" xmlns="http://www.w3.org/2000/svg">
<g clip-path="url(#clip0)">
<path d="M38.0845 30.7622C37.7469 29.5157 36.7435 28.5192 35.4948 28.1902C35.6594 27.8614 35.8014 27.4475 35.8014 27.0737V5.292V2.55889V2.55874C35.8013 1.14788 34.6537 0 33.2433 0H7.51278C6.10232 0 4.95483 1.14788 4.95483 2.55874V12.8117C4.95483 13.2432 5.30467 13.593 5.73607 13.593C6.16748 13.593 6.51732 13.2432 6.51732 12.8117V6.07325H15.4407V10.8424C15.4407 11.4299 16.0969 11.8129 16.609 11.521L18.3367 10.5357L19.7902 11.4945C20.0424 11.6609 20.3774 11.6651 20.6337 11.5052L22.1991 10.5292L23.9351 11.5207C24.4471 11.8131 25.1038 11.4301 25.1038 10.8423V6.07325H34.2388V27.0223C34.1914 27.3474 33.9982 28.0048 33.2143 28.0699H23.8296C23.3889 27.3409 22.6999 26.7013 21.8791 26.4297L15.5333 24.2909C12.3436 23.1498 9.08722 23.5899 6.51732 25.8898V19.752C6.51732 19.3205 6.16748 18.9707 5.73607 18.9707C5.30467 18.9707 4.95483 19.3205 4.95483 19.752V27.1962C4.36038 27.6147 3.73601 27.8975 3.04671 28.1187L2.3314 28.3478C1.92047 28.4794 1.69406 28.9191 1.82563 29.3301C1.95719 29.7409 2.39687 29.9676 2.80789 29.8358L3.50671 29.6121C5.46084 29.077 6.55318 27.7004 8.11442 26.5906C10.256 25.0696 12.573 24.9445 15.027 25.7693L21.3726 27.9083C22.0465 28.1526 22.5154 28.7706 22.7525 29.4265C23.1723 31.0548 21.605 32.5575 19.9956 32.0768L15.4736 30.7383C15.0597 30.616 14.6252 30.8521 14.5027 31.2658C14.3836 31.6681 14.6275 32.1174 15.0302 32.2366L19.5503 33.5745C21.2641 34.0862 23.1255 34.0095 24.7956 33.3565L33.7947 29.7789C34.9366 29.3249 36.2558 29.988 36.5762 31.1708C36.8516 32.1877 36.3228 33.2525 35.346 33.6475L24.8271 37.9016C23.4985 38.4369 22.0075 38.5168 20.626 38.1258L12.7098 35.9213C11.8106 35.6708 10.8614 35.6752 9.96448 35.9337C9.95433 35.9366 9.94417 35.9398 9.93409 35.9431L2.32273 38.4773C1.91336 38.6136 1.69203 39.0559 1.82828 39.4652C1.93734 39.7927 2.24226 39.9999 2.56945 39.9999C2.65125 39.9999 2.73445 39.987 2.81632 39.9597L10.4117 37.4309C11.026 37.2567 11.6753 37.2551 12.2906 37.4264L20.2036 39.6301C21.9135 40.114 23.7627 40.0148 25.412 39.3504L35.9317 35.0959C37.641 34.4048 38.5663 32.5417 38.0845 30.7622ZM6.51755 4.51076V2.55889C6.51755 2.00968 6.96403 1.5628 7.51278 1.5628H15.4407V4.51068H6.51755V4.51076ZM23.5414 9.49651L22.5691 8.9412C22.3196 8.79862 22.0121 8.80456 21.7682 8.95667L20.2322 9.9144L18.7965 8.96737C18.5533 8.8069 18.2324 8.79667 17.9794 8.94089L17.0032 9.4976V1.56319H23.5414V9.49651ZM25.1038 4.51076V1.56288H33.2435C33.7922 1.56288 34.2387 2.00968 34.2387 2.55897V4.51083H25.1038V4.51076ZM24.2228 31.9029C24.0674 31.9636 23.91 32.0182 23.7509 32.0665C24.2368 31.35 24.4538 30.4981 24.3703 29.6324H29.9337L24.2228 31.9029Z" fill="#FF7C00"/>
<g clip-path="url(#clip1)">
<path d="M38.0845 30.7622C37.7469 29.5157 36.7435 28.5192 35.4948 28.1902C35.6594 27.8614 35.8014 27.4475 35.8014 27.0737V5.292V2.55889V2.55874C35.8013 1.14788 34.6537 0 33.2433 0H7.51278C6.10232 0 4.95483 1.14788 4.95483 2.55874V12.8117C4.95483 13.2432 5.30467 13.593 5.73607 13.593C6.16748 13.593 6.51732 13.2432 6.51732 12.8117V6.07325H15.4407V10.8424C15.4407 11.4299 16.0969 11.8129 16.609 11.521L18.3367 10.5357L19.7902 11.4945C20.0424 11.6609 20.3774 11.6651 20.6337 11.5052L22.1991 10.5292L23.9351 11.5207C24.4471 11.8131 25.1038 11.4301 25.1038 10.8423V6.07325H34.2388V27.0223C34.1914 27.3474 33.9982 28.0048 33.2143 28.0699H23.8296C23.3889 27.3409 22.6999 26.7013 21.8791 26.4297L15.5333 24.2909C12.3436 23.1498 9.08722 23.5899 6.51732 25.8898V19.752C6.51732 19.3205 6.16748 18.9707 5.73607 18.9707C5.30467 18.9707 4.95483 19.3205 4.95483 19.752V27.1962C4.36038 27.6147 3.73601 27.8975 3.04671 28.1187L2.3314 28.3478C1.92047 28.4794 1.69406 28.9191 1.82563 29.3301C1.95719 29.7409 2.39687 29.9676 2.80789 29.8358L3.50671 29.6121C5.46084 29.077 6.55318 27.7004 8.11442 26.5906C10.256 25.0696 12.573 24.9445 15.027 25.7693L21.3726 27.9083C22.0465 28.1526 22.5154 28.7706 22.7525 29.4265C23.1723 31.0548 21.605 32.5575 19.9956 32.0768L15.4736 30.7383C15.0597 30.616 14.6252 30.8521 14.5027 31.2658C14.3836 31.6681 14.6275 32.1174 15.0302 32.2366L19.5503 33.5745C21.2641 34.0862 23.1255 34.0095 24.7956 33.3565L33.7947 29.7789C34.9366 29.3249 36.2558 29.988 36.5762 31.1708C36.8516 32.1877 36.3228 33.2525 35.346 33.6475L24.8271 37.9016C23.4985 38.4369 22.0075 38.5168 20.626 38.1258L12.7098 35.9213C11.8106 35.6708 10.8614 35.6752 9.96448 35.9337C9.95433 35.9366 9.94417 35.9398 9.93409 35.9431L2.32273 38.4773C1.91336 38.6136 1.69203 39.0559 1.82828 39.4652C1.93734 39.7927 2.24226 39.9999 2.56945 39.9999C2.65125 39.9999 2.73445 39.987 2.81632 39.9597L10.4117 37.4309C11.026 37.2567 11.6753 37.2551 12.2906 37.4264L20.2036 39.6301C21.9135 40.114 23.7627 40.0148 25.412 39.3504L35.9317 35.0959C37.641 34.4048 38.5663 32.5417 38.0845 30.7622ZM6.51755 4.51076V2.55889C6.51755 2.00968 6.96403 1.5628 7.51278 1.5628H15.4407V4.51068H6.51755V4.51076ZM23.5414 9.49651L22.5691 8.9412C22.3196 8.79862 22.0121 8.80456 21.7682 8.95667L20.2322 9.9144L18.7965 8.96737C18.5533 8.8069 18.2324 8.79667 17.9794 8.94089L17.0032 9.4976V1.56319H23.5414V9.49651ZM25.1038 4.51076V1.56288H33.2435C33.7922 1.56288 34.2387 2.00968 34.2387 2.55897V4.51083H25.1038V4.51076ZM24.2228 31.9029C24.0674 31.9636 23.91 32.0182 23.7509 32.0665C24.2368 31.35 24.4538 30.4981 24.3703 29.6324H29.9337L24.2228 31.9029Z" fill="white"/>
</g>
<path d="M29.1088 25.4935C29.5402 25.4935 29.89 25.1438 29.89 24.7123V21.2081L30.5275 21.8456C30.8285 22.1465 31.3313 22.1465 31.6324 21.8456C31.9375 21.5405 31.9375 21.0458 31.6324 20.7406L29.6613 18.7695C29.3607 18.4689 28.857 18.4689 28.5564 18.7695L26.5853 20.7406C26.2802 21.0457 26.2802 21.5404 26.5853 21.8456C26.8904 22.1506 27.3849 22.1506 27.6902 21.8456L28.3276 21.2081V24.7123C28.3275 25.1438 28.6773 25.4935 29.1088 25.4935Z" fill="white"/>
<path d="M5.08648 16.6834C5.26867 16.9617 5.62538 17.0907 5.94413 17.0022C6.27195 16.9111 6.50859 16.6096 6.51655 16.269C6.5328 15.5745 5.65421 15.2034 5.17156 15.7099C4.92195 15.9719 4.88562 16.3816 5.08648 16.6834Z" fill="#FF7C00"/>
</g>
<defs>
<clipPath id="clip0">
<rect width="40" height="40" fill="white"/>
</clipPath>
<clipPath id="clip1">
<rect width="10" height="12" fill="white" transform="translate(15)"/>
</clipPath>
</defs>
</svg>
