<svg width="16" height="16" viewBox="0 0 16 16" fill="none" xmlns="http://www.w3.org/2000/svg">
<path d="M8.00016 14C7.15812 13.2818 6.37762 12.4944 5.66683 11.646C4.60016 10.372 3.3335 8.4747 3.3335 6.6667C3.33255 4.7784 4.46966 3.07563 6.21421 2.35297C7.95876 1.6303 9.96687 2.03019 11.3015 3.36603C12.1791 4.23977 12.6708 5.42829 12.6669 6.6667C12.6669 8.4747 11.4002 10.372 10.3335 11.646C9.62271 12.4944 8.84221 13.2818 8.00016 14ZM8.00016 3.33337C6.16013 3.33557 4.66903 4.82666 4.66683 6.6667C4.66683 7.44403 5.01816 8.79003 6.69016 10.7907C7.10226 11.2827 7.53951 11.7531 8.00016 12.2C8.46086 11.7537 8.89832 11.2839 9.31083 10.7927C10.9822 8.78937 11.3335 7.44337 11.3335 6.6667C11.3313 4.82666 9.8402 3.33557 8.00016 3.33337ZM8.00016 8.6667C6.89559 8.6667 6.00016 7.77127 6.00016 6.6667C6.00016 5.56213 6.89559 4.6667 8.00016 4.6667C9.10473 4.6667 10.0002 5.56213 10.0002 6.6667C10.0002 7.19713 9.78945 7.70584 9.41438 8.08091C9.0393 8.45599 8.5306 8.6667 8.00016 8.6667Z" fill="#FF7C00"/>
</svg>
