<svg width="40" height="40" viewBox="0 0 40 40" fill="none" xmlns="http://www.w3.org/2000/svg">
<path d="M24.2224 12.2776H21.8787C21.4473 12.2776 21.0974 12.6274 21.0974 13.0588V19.3089C21.0974 19.7403 21.4473 20.0901 21.8787 20.0901C22.3101 20.0901 22.6599 19.7403 22.6599 19.3089V16.9651H23.197C23.6284 16.9651 23.9783 16.6153 23.9783 16.1838C23.9783 15.7524 23.6284 15.4026 23.197 15.4026H22.6599V13.8401H24.2224C24.6538 13.8401 25.0037 13.4903 25.0037 13.0588C25.0037 12.6274 24.6539 12.2776 24.2224 12.2776Z" fill="white"/>
<path d="M11.1169 12.2776H9.55444C9.12296 12.2776 8.77319 12.6274 8.77319 13.0588V19.3089C8.77319 19.7403 9.12296 20.0901 9.55444 20.0901C9.98593 20.0901 10.3357 19.7403 10.3357 19.3089V16.9651H11.1169C12.4093 16.9651 13.4607 15.9137 13.4607 14.6213C13.4607 13.329 12.4093 12.2776 11.1169 12.2776ZM11.1169 15.4027H10.3357V13.8402H11.1169C11.5477 13.8402 11.8982 14.1906 11.8982 14.6214C11.8982 15.0522 11.5478 15.4027 11.1169 15.4027Z" fill="white"/>
<path d="M17.1914 12.2776H15.6289C15.1974 12.2776 14.8477 12.6274 14.8477 13.0588V19.3089C14.8477 19.7403 15.1974 20.0901 15.6289 20.0901H17.1914C18.4837 20.0901 19.5352 19.0387 19.5352 17.7463V14.6213C19.5352 13.329 18.4837 12.2776 17.1914 12.2776ZM17.9727 17.7464C17.9727 18.1772 17.6222 18.5277 17.1914 18.5277H16.4102V13.8402H17.1914C17.6222 13.8402 17.9727 14.1906 17.9727 14.6214V17.7464Z" fill="white"/>
<path d="M37.7738 31.1917C37.879 31.0557 37.9374 30.8868 37.9374 30.7146V1.63163C37.9374 0.73195 37.2054 0 36.3057 0H7.39256C6.49287 0 5.76092 0.73195 5.76092 1.63163V8.37137H4.34374C3.0514 8.37137 2 9.42278 2 10.7151V21.6526C2 22.9449 3.0514 23.9963 4.34374 23.9963H5.761V38.3684C5.761 39.2681 6.49295 40 7.39264 40H28.6521C28.8574 40 29.0593 39.9164 29.2045 39.7712L37.7086 31.2671C37.7321 31.2435 37.7535 31.218 37.7738 31.1917ZM3.56249 21.6526V10.7151C3.56249 10.2843 3.91296 9.93387 4.34374 9.93387H29.4334C29.8642 9.93387 30.2146 10.2843 30.2146 10.7151V21.6526C30.2146 22.0834 29.8642 22.4338 29.4334 22.4338H4.34374C3.91296 22.4338 3.56249 22.0834 3.56249 21.6526ZM7.32342 38.3684V27.1214H10.8387C11.2702 27.1214 11.62 26.7716 11.62 26.3401C11.62 25.9086 11.2702 25.5589 10.8387 25.5589H7.32342V23.9963H29.4334C30.7257 23.9963 31.7771 22.9449 31.7771 21.6526V10.7151C31.7771 9.42278 30.7257 8.37137 29.4334 8.37137H7.32342V1.63163C7.32342 1.59546 7.35639 1.56249 7.39256 1.56249H36.3057C36.3419 1.56249 36.3749 1.59546 36.3749 1.63163V29.9334H29.5023C28.6026 29.9334 27.8707 30.6653 27.8707 31.565V38.4375H7.39256C7.35639 38.4375 7.32342 38.4045 7.32342 38.3684ZM35.27 31.4959L29.4333 37.3327V31.565C29.4333 31.5289 29.4662 31.4959 29.5024 31.4959H35.27Z" fill="#FF7C00"/>
<path d="M14.354 25.559C13.9225 25.559 13.5728 25.9087 13.5728 26.3402C13.5728 26.7717 13.9225 27.1215 14.354 27.1215H14.3546C14.786 27.1215 15.1356 26.7717 15.1356 26.3402C15.1356 25.9087 14.7855 25.559 14.354 25.559Z" fill="#FF7C00"/>
</svg>
