<svg width="40" height="40" viewBox="0 0 40 40" fill="none" xmlns="http://www.w3.org/2000/svg">
<g clip-path="url(#clip0)">
<path d="M39.2188 21.6537H37.9028L35.7395 15.3078C35.6316 14.9913 35.3343 14.7787 35 14.7787H28.125V11.1849C28.125 10.7534 27.7752 10.4037 27.3438 10.4037H23.5938V8.125C23.5938 5.97109 21.8414 4.21875 19.6875 4.21875H8.4375C6.28359 4.21875 4.53125 5.97109 4.53125 8.125V10.4037H0.78125C0.349766 10.4037 0 10.7534 0 11.1849V31.1849C0 31.6164 0.349766 31.9662 0.78125 31.9662H4.23562C4.42109 34.1006 6.21672 35.7812 8.39844 35.7812C10.5802 35.7812 12.3758 34.1006 12.5612 31.9662H16.904C17.3355 31.9662 17.6852 31.6164 17.6852 31.1849C17.6852 30.7534 17.3355 30.4037 16.904 30.4037H12.4023C12.1358 29.5142 11.5804 28.7489 10.8455 28.2162H26.5625V30.4037H23.9352C23.5037 30.4037 23.1539 30.7534 23.1539 31.1849C23.1539 31.6164 23.5037 31.9662 23.9352 31.9662H27.8913C28.0767 34.1006 29.8723 35.7812 32.0541 35.7812C34.2358 35.7812 36.0314 34.1006 36.2169 31.9662H39.2188C39.6502 31.9662 40 31.6164 40 31.1849V22.4349C40 22.0035 39.6502 21.6537 39.2188 21.6537ZM38.4375 25.0912H36.5625V23.2162H38.4375V25.0912ZM34.4409 16.3412L36.252 21.6537H28.125V16.3412H34.4409ZM16.4073 5.78125V9.57625L14.5187 8.22266C14.3827 8.12516 14.2231 8.07641 14.0636 8.07641C13.9041 8.07641 13.7445 8.12516 13.6084 8.22266L11.7198 9.57625V5.78125H16.4073ZM6.09375 8.125C6.09375 6.83266 7.14516 5.78125 8.4375 5.78125H10.1573V11.0973C10.1573 11.3902 10.3212 11.6585 10.5816 11.7923C10.8421 11.9261 11.1556 11.903 11.3937 11.7323L14.0636 9.81875L16.7334 11.7323C16.8687 11.8293 17.0283 11.8786 17.1887 11.8786C17.3106 11.8786 17.433 11.8501 17.5455 11.7923C17.806 11.6585 17.9698 11.3902 17.9698 11.0973V5.78125H19.6875C20.9798 5.78125 22.0312 6.83266 22.0312 8.125V19.375C22.0312 20.6673 20.9798 21.7188 19.6875 21.7188H8.4375C7.14516 21.7188 6.09375 20.6673 6.09375 19.375V8.125ZM8.39844 34.2188C6.95531 34.2188 5.78125 33.0447 5.78125 31.6016C5.78125 30.1584 6.95531 28.9844 8.39844 28.9844C9.84156 28.9844 11.0156 30.1584 11.0156 31.6016C11.0156 33.0447 9.84156 34.2188 8.39844 34.2188ZM4.39453 30.4037H1.5625V28.2162H5.95141C5.21648 28.7489 4.66117 29.5142 4.39453 30.4037ZM1.5625 26.6537V11.9662H4.53125V19.375C4.53125 21.5289 6.28359 23.2812 8.4375 23.2812H19.6875C21.8414 23.2812 23.5938 21.5289 23.5938 19.375V11.9662H26.5625V26.6537H1.5625ZM32.0541 34.2188C30.6109 34.2188 29.4369 33.0447 29.4369 31.6016C29.4369 30.1584 30.6109 28.9844 32.0541 28.9844C33.4972 28.9844 34.6712 30.1584 34.6712 31.6016C34.6712 33.0447 33.4972 34.2188 32.0541 34.2188ZM36.058 30.4037C35.5416 28.681 33.9425 27.4219 32.0541 27.4219C30.2498 27.4219 28.7091 28.5711 28.125 30.1759V23.2162H35V25.8724C35 26.3039 35.3498 26.6537 35.7812 26.6537H38.4375V30.4037H36.058Z" fill="#FF7C00"/>
<g clip-path="url(#clip1)">
<path d="M39.2188 21.6537H37.9028L35.7395 15.3078C35.6316 14.9913 35.3343 14.7787 35 14.7787H28.125V11.1849C28.125 10.7534 27.7752 10.4037 27.3438 10.4037H23.5938V8.125C23.5938 5.97109 21.8414 4.21875 19.6875 4.21875H8.4375C6.28359 4.21875 4.53125 5.97109 4.53125 8.125V10.4037H0.78125C0.349766 10.4037 0 10.7534 0 11.1849V31.1849C0 31.6164 0.349766 31.9662 0.78125 31.9662H4.23562C4.42109 34.1006 6.21672 35.7812 8.39844 35.7812C10.5802 35.7812 12.3758 34.1006 12.5612 31.9662H16.904C17.3355 31.9662 17.6852 31.6164 17.6852 31.1849C17.6852 30.7534 17.3355 30.4037 16.904 30.4037H12.4023C12.1358 29.5142 11.5804 28.7489 10.8455 28.2162H26.5625V30.4037H23.9352C23.5037 30.4037 23.1539 30.7534 23.1539 31.1849C23.1539 31.6164 23.5037 31.9662 23.9352 31.9662H27.8913C28.0767 34.1006 29.8723 35.7812 32.0541 35.7812C34.2358 35.7812 36.0314 34.1006 36.2169 31.9662H39.2188C39.6502 31.9662 40 31.6164 40 31.1849V22.4349C40 22.0035 39.6502 21.6537 39.2188 21.6537ZM38.4375 25.0912H36.5625V23.2162H38.4375V25.0912ZM34.4409 16.3412L36.252 21.6537H28.125V16.3412H34.4409ZM16.4073 5.78125V9.57625L14.5187 8.22266C14.3827 8.12516 14.2231 8.07641 14.0636 8.07641C13.9041 8.07641 13.7445 8.12516 13.6084 8.22266L11.7198 9.57625V5.78125H16.4073ZM6.09375 8.125C6.09375 6.83266 7.14516 5.78125 8.4375 5.78125H10.1573V11.0973C10.1573 11.3902 10.3212 11.6585 10.5816 11.7923C10.8421 11.9261 11.1556 11.903 11.3937 11.7323L14.0636 9.81875L16.7334 11.7323C16.8687 11.8293 17.0283 11.8786 17.1887 11.8786C17.3106 11.8786 17.433 11.8501 17.5455 11.7923C17.806 11.6585 17.9698 11.3902 17.9698 11.0973V5.78125H19.6875C20.9798 5.78125 22.0312 6.83266 22.0312 8.125V19.375C22.0312 20.6673 20.9798 21.7188 19.6875 21.7188H8.4375C7.14516 21.7188 6.09375 20.6673 6.09375 19.375V8.125ZM8.39844 34.2188C6.95531 34.2188 5.78125 33.0447 5.78125 31.6016C5.78125 30.1584 6.95531 28.9844 8.39844 28.9844C9.84156 28.9844 11.0156 30.1584 11.0156 31.6016C11.0156 33.0447 9.84156 34.2188 8.39844 34.2188ZM4.39453 30.4037H1.5625V28.2162H5.95141C5.21648 28.7489 4.66117 29.5142 4.39453 30.4037ZM1.5625 26.6537V11.9662H4.53125V19.375C4.53125 21.5289 6.28359 23.2812 8.4375 23.2812H19.6875C21.8414 23.2812 23.5938 21.5289 23.5938 19.375V11.9662H26.5625V26.6537H1.5625ZM32.0541 34.2188C30.6109 34.2188 29.4369 33.0447 29.4369 31.6016C29.4369 30.1584 30.6109 28.9844 32.0541 28.9844C33.4972 28.9844 34.6712 30.1584 34.6712 31.6016C34.6712 33.0447 33.4972 34.2188 32.0541 34.2188ZM36.058 30.4037C35.5416 28.681 33.9425 27.4219 32.0541 27.4219C30.2498 27.4219 28.7091 28.5711 28.125 30.1759V23.2162H35V25.8724C35 26.3039 35.3498 26.6537 35.7812 26.6537H38.4375V30.4037H36.058Z" fill="white"/>
</g>
<path d="M16.9038 19.5056H19.3748C19.8063 19.5056 20.1561 19.1558 20.1561 18.7244C20.1561 18.2929 19.8063 17.9431 19.3748 17.9431H16.9038C16.4723 17.9431 16.1226 18.2929 16.1226 18.7244C16.1226 19.1558 16.4723 19.5056 16.9038 19.5056Z" fill="white"/>
<path d="M20.4194 30.4039C20.214 30.4039 20.0124 30.4867 19.8671 30.6328C19.7218 30.7781 19.6382 30.9797 19.6382 31.1851C19.6382 31.3906 19.7218 31.5921 19.8671 31.7375C20.0124 31.8828 20.214 31.9664 20.4194 31.9664C20.6249 31.9664 20.8265 31.8828 20.9717 31.7375C21.117 31.5921 21.2007 31.3906 21.2007 31.1851C21.2007 30.9797 21.1171 30.7781 20.9717 30.6328C20.8265 30.4867 20.6249 30.4039 20.4194 30.4039Z" fill="#FF7C00"/>
</g>
<defs>
<clipPath id="clip0">
<rect width="40" height="40" fill="white"/>
</clipPath>
<clipPath id="clip1">
<rect width="20" height="20" fill="white" transform="translate(4 4)"/>
</clipPath>
</defs>
</svg>
