<svg width="40" height="40" viewBox="0 0 40 40" fill="none" xmlns="http://www.w3.org/2000/svg">
<g clip-path="url(#clip0)">
<path d="M19.8134 26.0852C18.6934 26.0852 17.7822 26.9964 17.7822 28.1164C17.7822 29.2364 18.6935 30.1476 19.8134 30.1476C20.9333 30.1476 21.8446 29.2364 21.8446 28.1164C21.8446 26.9964 20.9335 26.0852 19.8134 26.0852ZM19.8134 28.5851C19.5549 28.5851 19.3447 28.3749 19.3447 28.1164C19.3447 27.8579 19.5549 27.6476 19.8134 27.6476C20.0719 27.6476 20.2822 27.8579 20.2822 28.1164C20.2822 28.3749 20.0719 28.5851 19.8134 28.5851Z" fill="white"/>
<path d="M26.0846 23.4961C25.9393 23.3508 25.7377 23.2672 25.5322 23.2672C25.3268 23.2672 25.1252 23.3507 24.9799 23.4961C24.8338 23.6414 24.751 23.8429 24.751 24.0484C24.751 24.2539 24.8338 24.4555 24.9799 24.6007C25.1252 24.7461 25.3268 24.8297 25.5322 24.8297C25.7377 24.8297 25.9393 24.7461 26.0846 24.6007C26.2299 24.4555 26.3135 24.2539 26.3135 24.0484C26.3135 23.8429 26.2299 23.6414 26.0846 23.4961Z" fill="#FF7C00"/>
<path d="M36.0932 11.249H35.251L24.231 0.229107C23.926 -0.0759709 23.4312 -0.0759709 23.1262 0.229107L20.3031 3.05231L9.01213 0.0269198C8.59533 -0.0848771 8.16689 0.162545 8.05525 0.579342L5.1965 11.249H3.28166C1.47244 11.249 0.000488281 12.7209 0.000488281 14.5302C0.000488281 14.5736 0.00212891 14.6166 0.00376953 14.6596C0.00197266 14.6811 0.000488281 14.7026 0.000488281 14.7246V36.094C0.000488281 38.2477 1.75283 40 3.90666 40H31.8745C31.8867 40 31.8985 39.9993 31.9106 39.9991H36.0931C38.247 39.9991 39.9992 38.2468 39.9992 36.0929V15.1551C39.9993 13.0012 38.247 11.249 36.0932 11.249ZM35.3953 12.8115H36.0932C37.3856 12.8115 38.4369 13.8629 38.4369 15.1551V21.4163C38.4369 22.4373 37.6062 23.2679 36.5853 23.2679H35.7807V20.155C35.7807 18.0283 34.0722 16.2944 31.9558 16.2508L35.3953 12.8115ZM21.089 4.47606C21.0891 4.47598 21.0892 4.47583 21.0892 4.47575L23.6787 1.88629L33.8948 12.1024L29.7737 16.2235H28.3445L30.2138 14.354C30.5189 14.049 30.5189 13.5543 30.2138 13.2492C29.5814 12.6168 29.5814 11.5879 30.2138 10.9554C30.5189 10.6504 30.5189 10.1557 30.2138 9.85051L25.9304 5.56723C25.6253 5.26215 25.1306 5.26215 24.8255 5.56723C24.1931 6.19973 23.1641 6.19973 22.5317 5.56723C22.2267 5.26215 21.7319 5.26215 21.4269 5.56723L10.7706 16.2236H9.34142L21.089 4.47606ZM18.7899 13.2884C17.0064 13.2884 15.5122 14.5477 15.1478 16.2236H12.9802L22.0478 7.1559C23.0487 7.75247 24.3085 7.75247 25.3094 7.1559L28.6251 10.4716C28.0286 11.4724 28.0286 12.7324 28.6251 13.7332L26.1347 16.2236H22.432C22.0675 14.5476 20.5734 13.2884 18.7899 13.2884ZM20.8044 16.2236H16.7756C17.0927 15.4207 17.8759 14.8509 18.79 14.8509C19.7042 14.8509 20.4873 15.4207 20.8044 16.2236ZM8.51572 14.8396L10.5846 7.11825C11.1519 7.12739 11.7162 6.98254 12.2216 6.69059C12.727 6.3988 13.1338 5.98387 13.4104 5.48676L16.9264 6.42887L11.824 11.5313L8.51572 14.8396ZM9.36236 1.73833L19.0273 4.32801L18.2022 5.15317L13.153 3.8002C12.9528 3.74653 12.7395 3.77465 12.5602 3.87825C12.3807 3.98184 12.2498 4.15247 12.1962 4.35262C12.084 4.77106 11.8156 5.12083 11.4405 5.33747C11.0653 5.55411 10.6281 5.61161 10.2096 5.4995C9.79299 5.38778 9.36447 5.63512 9.25283 6.05192L6.52049 16.2489H5.47424L9.36236 1.73833ZM3.28166 12.8115H4.77768L3.85658 16.2489H3.28158C2.33385 16.2489 1.56291 15.4779 1.56291 14.5302C1.56299 13.5825 2.33408 12.8115 3.28166 12.8115ZM38.4369 36.0929C38.4369 37.3853 37.3855 38.4366 36.0932 38.4366H34.9981C35.4892 37.7835 35.7807 36.9722 35.7807 36.0939V32.9551H36.2495C37.0654 32.9551 37.8206 32.6924 38.4369 32.2482V36.0929ZM38.4369 29.2053C38.4369 30.4114 37.4556 31.3927 36.2495 31.3927H19.8437C18.0345 31.3927 16.5625 29.9208 16.5625 28.1115C16.5625 26.3022 18.0344 24.8304 19.8437 24.8304H22.2113C22.6428 24.8304 22.9926 24.4805 22.9926 24.0491C22.9926 23.6177 22.6428 23.2679 22.2113 23.2679H19.8437C17.1729 23.2679 15.0001 25.4407 15.0001 28.1115C15.0001 30.7822 17.1729 32.955 19.8437 32.955H34.2183V36.0938C34.2183 37.374 33.1863 38.418 31.9107 38.4375H5.31283V29.6399C5.31283 29.2085 4.96307 28.8586 4.53158 28.8586C4.1001 28.8586 3.75033 29.2085 3.75033 29.6399V38.4318C2.53064 38.3511 1.56291 37.3336 1.56291 36.094V17.3236C2.06314 17.6325 2.65182 17.8113 3.28158 17.8113H31.8745C33.1668 17.8113 34.2181 18.8627 34.2181 20.155V23.2679H28.5695C28.138 23.2679 27.7882 23.6178 27.7882 24.0492C27.7882 24.4806 28.138 24.8304 28.5695 24.8304H36.5853C37.2675 24.8304 37.9031 24.6285 38.4369 24.2824V29.2053Z" fill="#FF7C00"/>
<g clip-path="url(#clip1)">
<path d="M36.0932 11.249H35.251L24.231 0.229107C23.926 -0.0759709 23.4312 -0.0759709 23.1262 0.229107L20.3031 3.05231L9.01213 0.0269198C8.59533 -0.0848771 8.16689 0.162545 8.05525 0.579342L5.1965 11.249H3.28166C1.47244 11.249 0.000488281 12.7209 0.000488281 14.5302C0.000488281 14.5736 0.00212891 14.6166 0.00376953 14.6596C0.00197266 14.6811 0.000488281 14.7026 0.000488281 14.7246V36.094C0.000488281 38.2477 1.75283 40 3.90666 40H31.8745C31.8867 40 31.8985 39.9993 31.9106 39.9991H36.0931C38.247 39.9991 39.9992 38.2468 39.9992 36.0929V15.1551C39.9993 13.0012 38.247 11.249 36.0932 11.249ZM35.3953 12.8115H36.0932C37.3856 12.8115 38.4369 13.8629 38.4369 15.1551V21.4163C38.4369 22.4373 37.6062 23.2679 36.5853 23.2679H35.7807V20.155C35.7807 18.0283 34.0722 16.2944 31.9558 16.2508L35.3953 12.8115ZM21.089 4.47606C21.0891 4.47598 21.0892 4.47583 21.0892 4.47575L23.6787 1.88629L33.8948 12.1024L29.7737 16.2235H28.3445L30.2138 14.354C30.5189 14.049 30.5189 13.5543 30.2138 13.2492C29.5814 12.6168 29.5814 11.5879 30.2138 10.9554C30.5189 10.6504 30.5189 10.1557 30.2138 9.85051L25.9304 5.56723C25.6253 5.26215 25.1306 5.26215 24.8255 5.56723C24.1931 6.19973 23.1641 6.19973 22.5317 5.56723C22.2267 5.26215 21.7319 5.26215 21.4269 5.56723L10.7706 16.2236H9.34142L21.089 4.47606ZM18.7899 13.2884C17.0064 13.2884 15.5122 14.5477 15.1478 16.2236H12.9802L22.0478 7.1559C23.0487 7.75247 24.3085 7.75247 25.3094 7.1559L28.6251 10.4716C28.0286 11.4724 28.0286 12.7324 28.6251 13.7332L26.1347 16.2236H22.432C22.0675 14.5476 20.5734 13.2884 18.7899 13.2884ZM20.8044 16.2236H16.7756C17.0927 15.4207 17.8759 14.8509 18.79 14.8509C19.7042 14.8509 20.4873 15.4207 20.8044 16.2236ZM8.51572 14.8396L10.5846 7.11825C11.1519 7.12739 11.7162 6.98254 12.2216 6.69059C12.727 6.3988 13.1338 5.98387 13.4104 5.48676L16.9264 6.42887L11.824 11.5313L8.51572 14.8396ZM9.36236 1.73833L19.0273 4.32801L18.2022 5.15317L13.153 3.8002C12.9528 3.74653 12.7395 3.77465 12.5602 3.87825C12.3807 3.98184 12.2498 4.15247 12.1962 4.35262C12.084 4.77106 11.8156 5.12083 11.4405 5.33747C11.0653 5.55411 10.6281 5.61161 10.2096 5.4995C9.79299 5.38778 9.36447 5.63512 9.25283 6.05192L6.52049 16.2489H5.47424L9.36236 1.73833ZM3.28166 12.8115H4.77768L3.85658 16.2489H3.28158C2.33385 16.2489 1.56291 15.4779 1.56291 14.5302C1.56299 13.5825 2.33408 12.8115 3.28166 12.8115ZM38.4369 36.0929C38.4369 37.3853 37.3855 38.4366 36.0932 38.4366H34.9981C35.4892 37.7835 35.7807 36.9722 35.7807 36.0939V32.9551H36.2495C37.0654 32.9551 37.8206 32.6924 38.4369 32.2482V36.0929ZM38.4369 29.2053C38.4369 30.4114 37.4556 31.3927 36.2495 31.3927H19.8437C18.0345 31.3927 16.5625 29.9208 16.5625 28.1115C16.5625 26.3022 18.0344 24.8304 19.8437 24.8304H22.2113C22.6428 24.8304 22.9926 24.4805 22.9926 24.0491C22.9926 23.6177 22.6428 23.2679 22.2113 23.2679H19.8437C17.1729 23.2679 15.0001 25.4407 15.0001 28.1115C15.0001 30.7822 17.1729 32.955 19.8437 32.955H34.2183V36.0938C34.2183 37.374 33.1863 38.418 31.9107 38.4375H5.31283V29.6399C5.31283 29.2085 4.96307 28.8586 4.53158 28.8586C4.1001 28.8586 3.75033 29.2085 3.75033 29.6399V38.4318C2.53064 38.3511 1.56291 37.3336 1.56291 36.094V17.3236C2.06314 17.6325 2.65182 17.8113 3.28158 17.8113H31.8745C33.1668 17.8113 34.2181 18.8627 34.2181 20.155V23.2679H28.5695C28.138 23.2679 27.7882 23.6178 27.7882 24.0492C27.7882 24.4806 28.138 24.8304 28.5695 24.8304H36.5853C37.2675 24.8304 37.9031 24.6285 38.4369 24.2824V29.2053Z" fill="white"/>
</g>
<path d="M5.08408 26.0405C4.93877 25.8953 4.7372 25.8116 4.53174 25.8116C4.32627 25.8116 4.12471 25.8952 3.97939 26.0405C3.83408 26.1858 3.75049 26.3874 3.75049 26.5928C3.75049 26.7983 3.83408 26.9999 3.97939 27.1452C4.12471 27.2905 4.32627 27.3741 4.53174 27.3741C4.7372 27.3741 4.93877 27.2905 5.08408 27.1452C5.22939 26.9999 5.31298 26.7983 5.31298 26.5928C5.31291 26.3874 5.22931 26.1858 5.08408 26.0405Z" fill="#FF7C00"/>
</g>
<defs>
<clipPath id="clip0">
<rect width="40" height="40" fill="white"/>
</clipPath>
<clipPath id="clip1">
<rect width="32" height="16" fill="white" transform="translate(4)"/>
</clipPath>
</defs>
</svg>
