<svg width="40" height="40" viewBox="0 0 40 40" fill="none" xmlns="http://www.w3.org/2000/svg">
<path d="M18.5126 18.5276H16.9502V13.0588C16.9502 12.6274 16.6004 12.2776 16.1689 12.2776C15.7375 12.2776 15.3877 12.6274 15.3877 13.0588V19.3088C15.3877 19.7403 15.7375 20.0901 16.1689 20.0901H18.5126C18.944 20.0901 19.2939 19.7403 19.2939 19.3088C19.2939 18.8773 18.944 18.5276 18.5126 18.5276Z" fill="white"/>
<path d="M13.3931 12.3601C13.0071 12.1671 12.5379 12.3235 12.3449 12.7094L11.4812 14.4369L10.6174 12.7094C10.4245 12.3235 9.95502 12.1669 9.56924 12.3601C9.18338 12.553 9.02698 13.0223 9.21987 13.4083L10.6077 16.1839L9.21987 18.9595C9.0269 19.3455 9.1833 19.8147 9.56924 20.0077C9.68151 20.0638 9.80065 20.0904 9.91807 20.0904C10.2046 20.0904 10.4806 19.9321 10.6174 19.6583L11.4812 17.9308L12.3449 19.6583C12.4818 19.9321 12.7577 20.0904 13.0443 20.0904C13.1617 20.0904 13.281 20.0638 13.3931 20.0077C13.779 19.8148 13.9354 19.3455 13.7425 18.9595L12.3547 16.1839L13.7425 13.4083C13.9354 13.0223 13.779 12.5531 13.3931 12.3601Z" fill="white"/>
<path d="M22.823 13.6448C23.0054 13.6448 23.1769 13.7158 23.3059 13.8448C23.6111 14.1499 24.1056 14.1499 24.4108 13.8448C24.7159 13.5397 24.7159 13.045 24.4108 12.7399C23.9867 12.3158 23.4229 12.0823 22.8231 12.0823C22.2233 12.0823 21.6594 12.3159 21.2354 12.7399C20.36 13.6154 20.36 15.0399 21.2354 15.9154L22.8772 17.5572C23.1434 17.8235 23.1434 18.2567 22.8772 18.5229C22.7482 18.6519 22.5767 18.723 22.3943 18.723C22.2118 18.723 22.0404 18.652 21.9114 18.523C21.6063 18.2179 21.1118 18.2179 20.8064 18.523C20.5014 18.8281 20.5014 19.3228 20.8064 19.6278C21.2306 20.052 21.7944 20.2855 22.3942 20.2855C22.994 20.2855 23.5579 20.0519 23.9819 19.6278C24.8574 18.7524 24.8573 17.3279 23.9819 16.4524L22.3401 14.8106C22.0739 14.5443 22.0739 14.1111 22.3401 13.8449C22.469 13.7158 22.6406 13.6448 22.823 13.6448Z" fill="white"/>
<path d="M37.7738 31.1917C37.8789 31.0556 37.9373 30.8869 37.9373 30.7146V1.63163C37.9373 0.73195 37.2053 0 36.3057 0H7.39256C6.49287 0 5.76092 0.73195 5.76092 1.63163V8.37137H4.34366C3.05132 8.37137 2 9.42278 2 10.7151V21.6526C2 22.9449 3.05132 23.9963 4.34366 23.9963H5.76092V38.3684C5.76092 39.2681 6.49287 40 7.39256 40H28.652C28.8574 40 29.0591 39.9163 29.2044 39.7712L37.7085 31.2671C37.7321 31.2435 37.7535 31.218 37.7738 31.1917ZM3.56249 21.6526V10.7151C3.56249 10.2843 3.91288 9.93387 4.34366 9.93387H29.4333C29.864 9.93387 30.2145 10.2843 30.2145 10.7151V21.6526C30.2145 22.0834 29.864 22.4338 29.4333 22.4338H4.34366C3.91296 22.4338 3.56249 22.0834 3.56249 21.6526ZM7.32342 38.3684V27.1214H10.8387C11.2701 27.1214 11.62 26.7716 11.62 26.3401C11.62 25.9086 11.2701 25.5589 10.8387 25.5589H7.32342V23.9963H29.4333C30.7257 23.9963 31.7771 22.9449 31.7771 21.6526V10.7151C31.7771 9.42278 30.7257 8.37137 29.4333 8.37137H7.32342V1.63163C7.32342 1.59546 7.35638 1.56249 7.39256 1.56249H36.3057C36.3419 1.56249 36.3749 1.59546 36.3749 1.63163V29.9334H29.5024C28.6027 29.9334 27.8708 30.6653 27.8708 31.565V38.4375H7.39256C7.35638 38.4375 7.32342 38.4045 7.32342 38.3684ZM35.2699 31.4959L29.4333 37.3326V31.565C29.4333 31.5288 29.4662 31.4958 29.5024 31.4958H35.2699V31.4959Z" fill="#FF7C00"/>
<path d="M14.354 25.559C13.9226 25.559 13.5728 25.9087 13.5728 26.3402C13.5728 26.7717 13.9226 27.1215 14.354 27.1215H14.3546C14.786 27.1215 15.1356 26.7717 15.1356 26.3402C15.1356 25.9087 14.7855 25.559 14.354 25.559Z" fill="#FF7C00"/>
</svg>
